<svg width="11" height="10" viewBox="0 0 11 10" fill="none" xmlns="http://www.w3.org/2000/svg">
<path d="M5.44075 4.75968C5.46028 4.68807 5.44726 4.60669 5.40168 4.51554C5.36262 4.44393 5.30728 4.36906 5.23567 4.29093L1.24153 0.30656C1.13736 0.202393 1.01366 0.15031 0.870435 0.15031C0.727205 0.15031 0.605135 0.202393 0.504224 0.30656C0.403312 0.410727 0.352856 0.534424 0.352856 0.677653C0.352856 0.820883 0.401685 0.94458 0.499341 1.04875L4.30793 4.74992L0.499341 8.46086C0.408195 8.54549 0.356112 8.64966 0.343091 8.77336C0.33007 8.89705 0.357739 9.01261 0.426099 9.12004C0.494458 9.22746 0.590487 9.29744 0.714185 9.33C0.837882 9.36255 0.95507 9.35604 1.06575 9.31047C1.13085 9.28442 1.18944 9.24536 1.24153 9.19328L5.23567 5.2089C5.30728 5.13078 5.35937 5.06242 5.39192 5.00382C5.43749 4.91268 5.45377 4.8313 5.44075 4.75968ZM10.1282 4.29093L6.13411 0.30656C6.02994 0.202393 5.90624 0.15031 5.76301 0.15031C5.61978 0.15031 5.49771 0.202393 5.3968 0.30656C5.29589 0.410727 5.24543 0.534424 5.24543 0.677653C5.24543 0.820883 5.29426 0.94458 5.39192 1.04875L9.20051 4.75968L5.39192 8.45109C5.30077 8.54224 5.24869 8.64966 5.23567 8.77336C5.22265 8.89705 5.25195 9.01099 5.32356 9.11515C5.39517 9.21932 5.4912 9.28931 5.61165 9.32511C5.73209 9.36092 5.84765 9.35604 5.95833 9.31047C6.02343 9.28442 6.07877 9.24536 6.12434 9.19328L10.1282 5.21867C10.1999 5.12752 10.2519 5.05591 10.2845 5.00382C10.3301 4.91919 10.3463 4.83781 10.3333 4.75968C10.3659 4.62297 10.2975 4.46672 10.1282 4.29093Z" fill="#3E5765"/>
</svg>
